<svg width="256" height="256" viewBox="0 0 256 256" fill="none" xmlns="http://www.w3.org/2000/svg">
<rect x="1" y="1" width="254" height="254" rx="9" stroke="white" stroke-width="2"/>
<path d="M168.119 122H156.847C156.18 118.758 155.013 115.909 153.347 113.455C151.71 111 149.71 108.939 147.347 107.273C145.013 105.576 142.422 104.303 139.574 103.455C136.725 102.606 133.756 102.182 130.665 102.182C125.028 102.182 119.922 103.606 115.347 106.455C110.801 109.303 107.18 113.5 104.483 119.045C101.816 124.591 100.483 131.394 100.483 139.455C100.483 147.515 101.816 154.318 104.483 159.864C107.18 165.409 110.801 169.606 115.347 172.455C119.922 175.303 125.028 176.727 130.665 176.727C133.756 176.727 136.725 176.303 139.574 175.455C142.422 174.606 145.013 173.348 147.347 171.682C149.71 169.985 151.71 167.909 153.347 165.455C155.013 162.97 156.18 160.121 156.847 156.909H168.119C167.271 161.667 165.725 165.924 163.483 169.682C161.241 173.439 158.453 176.636 155.119 179.273C151.786 181.879 148.044 183.864 143.892 185.227C139.771 186.591 135.362 187.273 130.665 187.273C122.725 187.273 115.665 185.333 109.483 181.455C103.301 177.576 98.4375 172.061 94.892 164.909C91.3466 157.758 89.5739 149.273 89.5739 139.455C89.5739 129.636 91.3466 121.152 94.892 114C98.4375 106.848 103.301 101.333 109.483 97.4545C115.665 93.5758 122.725 91.6364 130.665 91.6364C135.362 91.6364 139.771 92.3182 143.892 93.6818C148.044 95.0455 151.786 97.0455 155.119 99.6818C158.453 102.288 161.241 105.47 163.483 109.227C165.725 112.955 167.271 117.212 168.119 122Z" fill="white"/>
<path d="M22.69 45.3977C21.4968 45.3788 20.3036 45.1515 19.1104 44.7159C17.9173 44.2803 16.8282 43.5464 15.8434 42.5142C14.8585 41.4725 14.0678 40.0663 13.4712 38.2955C12.8746 36.5152 12.5763 34.2803 12.5763 31.5909C12.5763 29.0152 12.8178 26.733 13.3008 24.7443C13.7837 22.7462 14.4845 21.0653 15.4031 19.7017C16.3216 18.3286 17.4296 17.2869 18.7269 16.5767C20.0337 15.8665 21.5063 15.5114 23.1445 15.5114C24.7733 15.5114 26.2222 15.8381 27.4911 16.4915C28.7695 17.1354 29.8112 18.035 30.6161 19.1903C31.421 20.3456 31.9419 21.6761 32.1786 23.1818H28.7127C28.3907 21.875 27.7657 20.7907 26.8377 19.929C25.9097 19.0672 24.6786 18.6364 23.1445 18.6364C20.8907 18.6364 19.1152 19.6165 17.8178 21.5767C16.5299 23.5369 15.8813 26.2879 15.8718 29.8295H16.0991C16.6294 29.0246 17.2591 28.3381 17.9883 27.7699C18.7269 27.1922 19.5413 26.7472 20.4315 26.4347C21.3216 26.1222 22.2638 25.9659 23.2582 25.9659C24.9248 25.9659 26.4495 26.3826 27.832 27.2159C29.2146 28.0398 30.3226 29.1809 31.1559 30.6392C31.9892 32.0881 32.4059 33.75 32.4059 35.625C32.4059 37.4242 32.0034 39.072 31.1985 40.5682C30.3936 42.0549 29.262 43.2386 27.8036 44.1193C26.3548 44.9905 24.6502 45.4167 22.69 45.3977ZM22.69 42.2727C23.8832 42.2727 24.9532 41.9744 25.9002 41.3778C26.8567 40.7812 27.6095 39.9811 28.1587 38.9773C28.7174 37.9735 28.9968 36.8561 28.9968 35.625C28.9968 34.4223 28.7269 33.3286 28.1871 32.3438C27.6568 31.3494 26.9229 30.5587 25.9854 29.9716C25.0574 29.3845 23.9968 29.0909 22.8036 29.0909C21.904 29.0909 21.0659 29.2708 20.2894 29.6307C19.5129 29.9811 18.8311 30.464 18.244 31.0795C17.6663 31.6951 17.2118 32.4006 16.8803 33.196C16.5489 33.982 16.3832 34.8106 16.3832 35.6818C16.3832 36.8371 16.6531 37.9167 17.1928 38.9205C17.7421 39.9242 18.4902 40.7339 19.4371 41.3494C20.3936 41.965 21.4779 42.2727 22.69 42.2727Z" fill="white"/>
<path d="M69.5004 217.909V247H65.9776V221.602H65.8072L58.7049 226.318V222.739L65.9776 217.909H69.5004ZM77.8668 247V244.443L87.4691 233.932C88.596 232.701 89.524 231.631 90.2532 230.722C90.9824 229.803 91.5221 228.941 91.8725 228.136C92.2324 227.322 92.4123 226.47 92.4123 225.58C92.4123 224.557 92.1661 223.671 91.6737 222.923C91.1907 222.175 90.5278 221.598 89.685 221.19C88.8422 220.783 87.8952 220.58 86.8441 220.58C85.7267 220.58 84.7513 220.812 83.918 221.276C83.0941 221.73 82.4549 222.369 82.0004 223.193C81.5553 224.017 81.3327 224.983 81.3327 226.091H77.9805C77.9805 224.386 78.3735 222.89 79.1594 221.602C79.9454 220.314 81.0155 219.311 82.3697 218.591C83.7333 217.871 85.2627 217.511 86.9577 217.511C88.6623 217.511 90.1727 217.871 91.489 218.591C92.8053 219.311 93.8375 220.281 94.5856 221.503C95.3337 222.724 95.7077 224.083 95.7077 225.58C95.7077 226.65 95.5136 227.696 95.1254 228.719C94.7466 229.732 94.0837 230.864 93.1367 232.114C92.1992 233.354 90.8971 234.869 89.2305 236.659L82.6964 243.648V243.875H96.2191V247H77.8668ZM104.586 247.227C103.885 247.227 103.283 246.976 102.782 246.474C102.28 245.973 102.029 245.371 102.029 244.67C102.029 243.97 102.28 243.368 102.782 242.866C103.283 242.365 103.885 242.114 104.586 242.114C105.286 242.114 105.888 242.365 106.39 242.866C106.891 243.368 107.142 243.97 107.142 244.67C107.142 245.134 107.024 245.561 106.787 245.949C106.56 246.337 106.252 246.65 105.864 246.886C105.485 247.114 105.059 247.227 104.586 247.227ZM121.574 247.398C119.434 247.398 117.611 246.815 116.105 245.651C114.6 244.476 113.449 242.777 112.654 240.551C111.858 238.316 111.461 235.617 111.461 232.455C111.461 229.311 111.858 226.626 112.654 224.401C113.459 222.166 114.614 220.461 116.12 219.287C117.635 218.103 119.453 217.511 121.574 217.511C123.695 217.511 125.509 218.103 127.015 219.287C128.53 220.461 129.685 222.166 130.48 224.401C131.285 226.626 131.688 229.311 131.688 232.455C131.688 235.617 131.29 238.316 130.495 240.551C129.699 242.777 128.549 244.476 127.043 245.651C125.537 246.815 123.714 247.398 121.574 247.398ZM121.574 244.273C123.695 244.273 125.343 243.25 126.517 241.205C127.692 239.159 128.279 236.242 128.279 232.455C128.279 229.936 128.009 227.791 127.469 226.02C126.939 224.249 126.172 222.9 125.168 221.972C124.174 221.044 122.976 220.58 121.574 220.58C119.472 220.58 117.829 221.616 116.645 223.69C115.462 225.755 114.87 228.676 114.87 232.455C114.87 234.973 115.135 237.114 115.665 238.875C116.195 240.636 116.958 241.976 117.952 242.895C118.956 243.813 120.163 244.273 121.574 244.273ZM147.313 217.909V247H143.79V221.602H143.62L136.517 226.318V222.739L143.79 217.909H147.313ZM165.168 247.398C163.028 247.398 161.205 246.815 159.699 245.651C158.194 244.476 157.043 242.777 156.248 240.551C155.452 238.316 155.054 235.617 155.054 232.455C155.054 229.311 155.452 226.626 156.248 224.401C157.052 222.166 158.208 220.461 159.713 219.287C161.229 218.103 163.047 217.511 165.168 217.511C167.289 217.511 169.103 218.103 170.608 219.287C172.123 220.461 173.279 222.166 174.074 224.401C174.879 226.626 175.282 229.311 175.282 232.455C175.282 235.617 174.884 238.316 174.088 240.551C173.293 242.777 172.142 244.476 170.637 245.651C169.131 246.815 167.308 247.398 165.168 247.398ZM165.168 244.273C167.289 244.273 168.937 243.25 170.111 241.205C171.285 239.159 171.873 236.242 171.873 232.455C171.873 229.936 171.603 227.791 171.063 226.02C170.533 224.249 169.766 222.9 168.762 221.972C167.767 221.044 166.569 220.58 165.168 220.58C163.066 220.58 161.423 221.616 160.239 223.69C159.055 225.755 158.463 228.676 158.463 232.455C158.463 234.973 158.729 237.114 159.259 238.875C159.789 240.636 160.551 241.976 161.546 242.895C162.55 243.813 163.757 244.273 165.168 244.273ZM180.807 247L193.819 221.261V221.034H178.819V217.909H197.455V221.205L184.5 247H180.807Z" fill="white"/>
<path d="M124.32 45V42.4432L133.922 31.9318C135.049 30.7008 135.977 29.6307 136.706 28.7216C137.435 27.803 137.975 26.9413 138.326 26.1364C138.685 25.322 138.865 24.4697 138.865 23.5795C138.865 22.5568 138.619 21.6714 138.127 20.9233C137.644 20.1752 136.981 19.5975 136.138 19.1903C135.295 18.7831 134.348 18.5795 133.297 18.5795C132.18 18.5795 131.204 18.8116 130.371 19.2756C129.547 19.7301 128.908 20.3693 128.453 21.1932C128.008 22.017 127.786 22.983 127.786 24.0909H124.434C124.434 22.3864 124.827 20.8902 125.613 19.6023C126.399 18.3144 127.469 17.3106 128.823 16.5909C130.186 15.8712 131.716 15.5114 133.411 15.5114C135.115 15.5114 136.626 15.8712 137.942 16.5909C139.258 17.3106 140.291 18.2812 141.039 19.5028C141.787 20.7244 142.161 22.0833 142.161 23.5795C142.161 24.6496 141.967 25.696 141.578 26.7188C141.2 27.732 140.537 28.8636 139.59 30.1136C138.652 31.3542 137.35 32.8693 135.684 34.6591L129.15 41.6477V41.875H142.672V45H124.32ZM164.05 28.0682L161.039 28.9205C160.849 28.4186 160.57 27.9309 160.201 27.4574C159.841 26.9744 159.348 26.5767 158.723 26.2642C158.098 25.9517 157.298 25.7955 156.323 25.7955C154.988 25.7955 153.875 26.1032 152.985 26.7188C152.104 27.3248 151.664 28.0966 151.664 29.0341C151.664 29.8674 151.967 30.5256 152.573 31.0085C153.179 31.4915 154.126 31.8939 155.414 32.2159L158.652 33.0114C160.603 33.4848 162.057 34.2093 163.013 35.1847C163.97 36.1506 164.448 37.3958 164.448 38.9205C164.448 40.1705 164.088 41.2879 163.368 42.2727C162.658 43.2576 161.664 44.0341 160.385 44.6023C159.107 45.1705 157.62 45.4545 155.925 45.4545C153.7 45.4545 151.858 44.9716 150.4 44.0057C148.941 43.0398 148.018 41.6288 147.63 39.7727L150.811 38.9773C151.114 40.1515 151.687 41.0322 152.53 41.6193C153.382 42.2064 154.495 42.5 155.868 42.5C157.431 42.5 158.671 42.1686 159.59 41.5057C160.518 40.8333 160.982 40.0284 160.982 39.0909C160.982 38.3333 160.717 37.6989 160.186 37.1875C159.656 36.6667 158.842 36.2784 157.743 36.0227L154.107 35.1705C152.109 34.697 150.641 33.9631 149.703 32.9688C148.775 31.965 148.311 30.7102 148.311 29.2045C148.311 27.9735 148.657 26.8845 149.348 25.9375C150.049 24.9905 151.001 24.2472 152.203 23.7074C153.416 23.1676 154.789 22.8977 156.323 22.8977C158.482 22.8977 160.177 23.3712 161.408 24.3182C162.649 25.2652 163.529 26.5152 164.05 28.0682ZM168.414 30.4545V28.2386L175.062 22.3295C175.725 21.7424 176.279 21.2169 176.724 20.7528C177.169 20.2888 177.505 19.839 177.733 19.4034C177.96 18.9678 178.074 18.5038 178.074 18.0114C178.074 17.1591 177.747 16.482 177.093 15.9801C176.44 15.4782 175.63 15.2273 174.664 15.2273C173.642 15.2273 172.818 15.5019 172.193 16.0511C171.568 16.5909 171.255 17.3011 171.255 18.1818H168.301C168.301 16.5625 168.902 15.2604 170.105 14.2756C171.307 13.2812 172.846 12.7841 174.721 12.7841C175.971 12.7841 177.07 13.0114 178.017 13.4659C178.964 13.911 179.702 14.5265 180.233 15.3125C180.763 16.089 181.028 16.9697 181.028 17.9545C181.028 18.7311 180.872 19.4508 180.559 20.1136C180.247 20.7765 179.759 21.4631 179.096 22.1733C178.433 22.8835 177.581 23.6932 176.539 24.6023L172.846 27.8409V27.9545H181.539V30.4545H168.414ZM186.273 45V42.4432L195.875 31.9318C197.002 30.7008 197.93 29.6307 198.659 28.7216C199.389 27.803 199.928 26.9413 200.279 26.1364C200.639 25.322 200.819 24.4697 200.819 23.5795C200.819 22.5568 200.572 21.6714 200.08 20.9233C199.597 20.1752 198.934 19.5975 198.091 19.1903C197.248 18.7831 196.301 18.5795 195.25 18.5795C194.133 18.5795 193.158 18.8116 192.324 19.2756C191.5 19.7301 190.861 20.3693 190.407 21.1932C189.962 22.017 189.739 22.983 189.739 24.0909H186.387C186.387 22.3864 186.78 20.8902 187.566 19.6023C188.352 18.3144 189.422 17.3106 190.776 16.5909C192.14 15.8712 193.669 15.5114 195.364 15.5114C197.069 15.5114 198.579 15.8712 199.895 16.5909C201.212 17.3106 202.244 18.2812 202.992 19.5028C203.74 20.7244 204.114 22.0833 204.114 23.5795C204.114 24.6496 203.92 25.696 203.532 26.7188C203.153 27.732 202.49 28.8636 201.543 30.1136C200.605 31.3542 199.303 32.8693 197.637 34.6591L191.103 41.6477V41.875H204.625V45H186.273ZM210.549 53.1818V23.1818H213.787V26.6477H214.185C214.431 26.2689 214.772 25.786 215.208 25.1989C215.653 24.6023 216.287 24.072 217.111 23.608C217.944 23.1345 219.071 22.8977 220.492 22.8977C222.329 22.8977 223.948 23.357 225.35 24.2756C226.751 25.1941 227.845 26.4962 228.631 28.1818C229.417 29.8674 229.81 31.8561 229.81 34.1477C229.81 36.4583 229.417 38.4612 228.631 40.1562C227.845 41.8419 226.756 43.1487 225.364 44.0767C223.972 44.9953 222.367 45.4545 220.549 45.4545C219.147 45.4545 218.025 45.2225 217.182 44.7585C216.339 44.285 215.691 43.75 215.236 43.1534C214.782 42.5473 214.431 42.0455 214.185 41.6477H213.901V53.1818H210.549ZM213.844 34.0909C213.844 35.7386 214.086 37.1922 214.569 38.4517C215.051 39.7017 215.757 40.6818 216.685 41.392C217.613 42.0928 218.749 42.4432 220.094 42.4432C221.496 42.4432 222.665 42.0739 223.603 41.3352C224.55 40.5871 225.26 39.5833 225.733 38.3239C226.216 37.0549 226.458 35.6439 226.458 34.0909C226.458 32.5568 226.221 31.1742 225.748 29.9432C225.283 28.7027 224.578 27.7225 223.631 27.0028C222.694 26.2737 221.515 25.9091 220.094 25.9091C218.73 25.9091 217.585 26.2547 216.657 26.946C215.729 27.6278 215.028 28.5843 214.554 29.8153C214.081 31.0369 213.844 32.4621 213.844 34.0909ZM233.844 30.4545V28.2386L240.492 22.3295C241.155 21.7424 241.709 21.2169 242.154 20.7528C242.599 20.2888 242.935 19.839 243.162 19.4034C243.39 18.9678 243.503 18.5038 243.503 18.0114C243.503 17.1591 243.176 16.482 242.523 15.9801C241.87 15.4782 241.06 15.2273 240.094 15.2273C239.071 15.2273 238.248 15.5019 237.623 16.0511C236.998 16.5909 236.685 17.3011 236.685 18.1818H233.73C233.73 16.5625 234.332 15.2604 235.534 14.2756C236.737 13.2812 238.276 12.7841 240.151 12.7841C241.401 12.7841 242.499 13.0114 243.446 13.4659C244.393 13.911 245.132 14.5265 245.662 15.3125C246.193 16.089 246.458 16.9697 246.458 17.9545C246.458 18.7311 246.301 19.4508 245.989 20.1136C245.676 20.7765 245.189 21.4631 244.526 22.1733C243.863 22.8835 243.011 23.6932 241.969 24.6023L238.276 27.8409V27.9545H246.969V30.4545H233.844Z" fill="white"/>
</svg>
