<svg width="220" height="253" viewBox="0 0 220 253" fill="none" xmlns="http://www.w3.org/2000/svg">
<path d="M3.71804 140V110.909H7.24077V123.864H22.7521V110.909H26.2749V140H22.7521V126.989H7.24077V140H3.71804Z" fill="white"/>
<path d="M122.381 121H118.858C118.65 119.987 118.285 119.097 117.765 118.33C117.253 117.562 116.628 116.919 115.89 116.398C115.16 115.867 114.351 115.47 113.461 115.205C112.57 114.939 111.642 114.807 110.676 114.807C108.915 114.807 107.319 115.252 105.89 116.142C104.469 117.032 103.337 118.344 102.495 120.077C101.661 121.81 101.245 123.936 101.245 126.455C101.245 128.973 101.661 131.099 102.495 132.832C103.337 134.565 104.469 135.877 105.89 136.767C107.319 137.657 108.915 138.102 110.676 138.102C111.642 138.102 112.57 137.97 113.461 137.705C114.351 137.439 115.16 137.046 115.89 136.526C116.628 135.995 117.253 135.347 117.765 134.58C118.285 133.803 118.65 132.913 118.858 131.909H122.381C122.116 133.396 121.633 134.726 120.932 135.901C120.231 137.075 119.36 138.074 118.319 138.898C117.277 139.712 116.107 140.332 114.81 140.759C113.522 141.185 112.144 141.398 110.676 141.398C108.195 141.398 105.989 140.792 104.057 139.58C102.125 138.367 100.605 136.644 99.4975 134.409C98.3896 132.174 97.8356 129.523 97.8356 126.455C97.8356 123.386 98.3896 120.735 99.4975 118.5C100.605 116.265 102.125 114.542 104.057 113.33C105.989 112.117 108.195 111.511 110.676 111.511C112.144 111.511 113.522 111.724 114.81 112.151C116.107 112.577 117.277 113.202 118.319 114.026C119.36 114.84 120.231 115.834 120.932 117.009C121.633 118.173 122.116 119.504 122.381 121Z" fill="white"/>
<path d="M98.718 39V9.90909H102.241V22.8636H117.752V9.90909H121.275V39H117.752V25.9886H102.241V39H98.718Z" fill="white"/>
<path d="M98.718 244V214.909H102.241V227.864H117.752V214.909H121.275V244H117.752V230.989H102.241V244H98.718Z" fill="white"/>
<path d="M193.718 140V110.909H197.241V123.864H212.752V110.909H216.275V140H212.752V126.989H197.241V140H193.718Z" fill="white"/>
<path d="M110 63V88" stroke="white" stroke-width="3" stroke-linecap="round"/>
<path d="M111 165V190" stroke="white" stroke-width="3" stroke-linecap="round"/>
<path d="M50 125H75" stroke="white" stroke-width="3" stroke-linecap="round"/>
<path d="M145 126H170" stroke="white" stroke-width="3" stroke-linecap="round"/>
</svg>
