<svg width="70" height="70" viewBox="0 0 438 460" fill="none" xmlns="http://www.w3.org/2000/svg">
<path d="M55.239 0.43195C50.534 0.52195 45.743 1.30195 40.869 2.90495C21.096 9.41095 -0.687996 62.269 33.458 115.817C42.679 130.277 -7.542 155.106 1.655 182.873C14.042 220.272 101.092 202.806 113.759 225.084C120.199 236.412 33.986 274.368 64.096 306.709C102.047 347.472 140.158 320.818 202.649 330.573C227.334 334.426 176.292 393.916 213.68 417.071C253.628 441.81 332.422 419.057 374.526 396.817C364.476 384.773 354.413 372.74 344.336 360.719C310.886 371.09 272.529 376.543 238.3 374.383C274.392 367.768 303.418 360.137 333.1 347.358C311.534 321.721 289.801 296.138 267.743 270.879C230.897 278.258 163.96 289.285 100.95 284.759C109.78 283.443 211.722 269.822 255.885 257.379C247.819 248.226 239.699 239.12 231.528 230.061C222.256 218.202 212.944 206.373 203.593 194.575C198.468 188.118 193.33 181.672 188.18 175.235L188.065 175.893C156.878 177.693 97.911 178.945 45.165 165.184C52.642 165.204 138.148 166.9 177.196 161.547C160.546 140.848 144.45 121.113 130.723 104.752C123.688 96.367 117.331 88.942 111.712 82.543L111.762 82.487C137.163 105.762 161.894 130.029 186.091 154.993C201.661 130.739 219.022 98.34 227.755 74.338C229.224 103.701 211.792 140.998 200.169 169.663C222.625 193.273 244.627 217.453 266.294 241.95C286.412 217.974 310.399 181.634 321.163 158.243C317.206 184.29 289.329 225.431 276.227 253.225C301.369 281.894 326.067 310.952 350.493 340.025C363.999 322.545 378.783 299.739 386.315 282.729C387.635 304.4 371.708 332.041 361.423 353.01L361.373 352.996C370.997 364.486 380.584 375.97 390.139 387.424C393.155 385.304 395.743 383.251 397.721 381.329C429.18 350.756 433.981 301.63 415.563 264.819C403.044 239.798 345.467 256.165 338.298 240.973C329.23 221.759 389.861 164.769 366.444 136.071C349.988 115.903 291.404 138.054 281.18 119.889C264.837 90.849 309.31 45.057 259.417 20.645C232.949 7.69495 213.02 25.994 171.079 64.748C149.843 84.371 108.949 1.58295 57.251 0.435952C56.5804 0.420762 55.9096 0.419426 55.239 0.43195ZM400.629 402.797L386.647 414.133L423.495 459.577L437.475 448.241L400.63 402.797H400.629Z" fill="white"/>
</svg>
