<svg width="70" height="70" viewBox="0 0 497 453" fill="none" xmlns="http://www.w3.org/2000/svg">
<path d="M328.233 203.843H479.833C488.933 203.843 496.633 196.143 496.033 187.043C490.933 111.243 451.633 44.8427 393.533 2.84271C386.133 -2.45729 375.633 -0.0572925 370.833 7.64271L290.433 136.043C313.033 150.343 328.233 175.243 328.233 203.843ZM290.433 271.543C278.133 279.243 263.633 283.943 248.033 283.943C232.433 283.943 218.033 279.243 205.633 271.543L125.233 400.043C120.433 407.743 122.833 418.143 130.833 422.443C165.733 441.243 205.633 452.043 248.033 452.043C290.433 452.043 330.333 441.243 365.233 422.443C373.233 418.143 375.633 407.643 370.833 400.043L290.433 271.543ZM248.033 251.843C274.533 251.843 296.033 230.343 296.033 203.843C296.033 177.343 274.533 155.843 248.033 155.843C221.533 155.843 200.033 177.343 200.033 203.843C200.033 230.343 221.533 251.843 248.033 251.843ZM16.2329 203.843H167.833C167.833 175.243 183.033 150.343 205.633 136.143L125.233 7.74271C120.433 0.0427098 109.933 -2.45729 102.533 2.94271C44.4329 44.9427 5.13286 111.343 0.0328635 187.143C-0.567137 196.143 7.13286 203.843 16.2329 203.843Z" fill="white"/>
</svg>
